<?xml version="1.0" encoding="UTF-8" standalone="no"?>
<!-- Generator: Adobe Illustrator 21.1.0, SVG Export Plug-In . SVG Version: 6.00 Build 0)  -->

<svg
   xmlns:dc="http://purl.org/dc/elements/1.1/"
   xmlns:cc="http://creativecommons.org/ns#"
   xmlns:rdf="http://www.w3.org/1999/02/22-rdf-syntax-ns#"
   xmlns:svg="http://www.w3.org/2000/svg"
   xmlns="http://www.w3.org/2000/svg"
   xmlns:sodipodi="http://sodipodi.sourceforge.net/DTD/sodipodi-0.dtd"
   xmlns:inkscape="http://www.inkscape.org/namespaces/inkscape"
   version="1.1"
   id="Layer_1"
   x="0px"
   y="0px"
   viewBox="0 0 138.74373 165.20813"
   xml:space="preserve"
   sodipodi:docname="kinvolk-logo-bg-black-bubble.svg"
   width="138.74373"
   height="165.20813"
   inkscape:version="0.92.2 (5c3e80d, 2017-08-06)"><metadata
     id="metadata932"><rdf:RDF><cc:Work
         rdf:about=""><dc:format>image/svg+xml</dc:format><dc:type
           rdf:resource="http://purl.org/dc/dcmitype/StillImage" /><dc:title></dc:title></cc:Work></rdf:RDF></metadata><defs
     id="defs930" /><sodipodi:namedview
     pagecolor="#ffffff"
     bordercolor="#666666"
     borderopacity="1"
     objecttolerance="10"
     gridtolerance="10"
     guidetolerance="10"
     inkscape:pageopacity="0"
     inkscape:pageshadow="2"
     inkscape:window-width="2556"
     inkscape:window-height="1365"
     id="namedview928"
     showgrid="false"
     fit-margin-top="10"
     fit-margin-left="10"
     fit-margin-right="10"
     fit-margin-bottom="10"
     inkscape:zoom="1.0167254"
     inkscape:cx="590.24998"
     inkscape:cy="71.808153"
     inkscape:window-x="0"
     inkscape:window-y="2214"
     inkscape:window-maximized="0"
     inkscape:current-layer="Layer_1" /><style
     type="text/css"
     id="style499">
	.st0{fill:none;stroke:#BBBDBF;stroke-width:1.0686;stroke-linecap:round;stroke-miterlimit:10;}
	.st1{fill:#706F6F;}
	.st2{fill:#FFFFFF;}
</style><rect
     x="562.60004"
     y="-497.10001"
     width="915.5"
     height="1203"
     id="rect501" /><g
     id="g583"
     transform="translate(-292.6,-474.6)"><path
       d="m 304.6,299.3 h 1 l 0.8,3 c 0.2,0.8 0.4,1.4 0.4,1.8 0,-0.2 0.1,-1.4 0.4,-3.6 l 0.4,-3.9 h 1 l -1.1,8.5 h -1.1 l -1,-3.4 c -0.2,-0.5 -0.3,-1.1 -0.4,-1.6 -0.1,0.7 -0.2,1.2 -0.4,1.6 l -0.9,3.4 h -1.1 l -1.2,-8.5 h 1 l 0.5,3.9 c 0.1,0.7 0.2,1.4 0.2,2.2 0.1,0.8 0.1,1.2 0.1,1.4 0.1,-0.6 0.2,-1.2 0.4,-1.8 z"
       id="path503"
       inkscape:connector-curvature="0" /><path
       d="m 316.6,305.2 h -4.9 v -8.5 h 4.9 v 1 h -3.8 v 2.6 h 3.6 v 0.9 h -3.6 v 3 h 3.8 z"
       id="path505"
       inkscape:connector-curvature="0" /><path
       d="m 324.3,296.7 h 2.6 c 1.1,0 1.8,0.2 2.3,0.5 0.5,0.3 0.7,0.9 0.7,1.6 0,0.5 -0.2,0.9 -0.5,1.2 -0.3,0.3 -0.7,0.5 -1.2,0.6 v 0.1 c 1.3,0.2 1.9,0.9 1.9,2 0,0.8 -0.2,1.4 -0.7,1.8 -0.5,0.4 -1.2,0.7 -2,0.7 h -3.1 z m 1.1,3.6 h 1.7 c 0.6,0 1,-0.1 1.3,-0.3 0.3,-0.2 0.4,-0.6 0.4,-1.1 0,-0.5 -0.1,-0.8 -0.4,-1 -0.3,-0.2 -0.8,-0.3 -1.4,-0.3 h -1.5 v 2.7 z m 0,0.9 v 3.1 h 1.8 c 1.2,0 1.8,-0.5 1.8,-1.6 0,-1 -0.6,-1.5 -1.9,-1.5 z"
       id="path507"
       inkscape:connector-curvature="0" /><path
       d="m 338.8,296.7 v 5.5 c 0,1 -0.2,1.8 -0.7,2.3 -0.5,0.5 -1.2,0.8 -2.1,0.8 -1.9,0 -2.8,-1 -2.8,-3.1 v -5.5 h 1.1 v 5.4 c 0,1.5 0.6,2.2 1.8,2.2 1.1,0 1.7,-0.8 1.7,-2.3 v -5.4 h 1 z"
       id="path509"
       inkscape:connector-curvature="0" /><path
       d="m 347.2,305.2 h -4.5 v -0.7 l 1.7,-0.1 v -6.8 l -1.7,-0.1 v -0.7 h 4.5 v 0.7 l -1.7,0.1 v 6.8 l 1.7,0.1 z"
       id="path511"
       inkscape:connector-curvature="0" /><path
       d="m 351.6,305.2 v -8.5 h 1.1 v 7.5 h 3.7 v 1 z"
       id="path513"
       inkscape:connector-curvature="0" /><path
       d="m 360,305.2 v -8.5 h 2 c 1.2,0 2.2,0.4 2.9,1.1 0.7,0.7 1,1.8 1,3.1 0,1.4 -0.4,2.5 -1.1,3.2 -0.7,0.7 -1.7,1.1 -3.1,1.1 z m 1,-7.6 v 6.6 h 0.6 c 2.1,0 3.1,-1.1 3.1,-3.4 0,-2.2 -1,-3.3 -2.9,-3.3 H 361 Z"
       id="path515"
       inkscape:connector-curvature="0" /><path
       d="m 373.6,305.2 v -8.5 h 1.1 v 7.5 h 3.7 v 1 z"
       id="path517"
       inkscape:connector-curvature="0" /><path
       d="m 387,305.2 h -4.5 v -0.7 l 1.7,-0.1 v -6.8 l -1.7,-0.1 v -0.7 h 4.5 v 0.7 l -1.7,0.1 v 6.8 l 1.7,0.1 z"
       id="path519"
       inkscape:connector-curvature="0" /><path
       d="m 396.4,305.2 h -1.2 l -3.4,-7 v 0 c 0.1,1.1 0.1,1.9 0.1,2.4 v 4.6 h -1 v -8.5 h 1.2 l 3.4,7 v 0 c -0.1,-1.2 -0.1,-2 -0.1,-2.3 v -4.6 h 1 z"
       id="path521"
       inkscape:connector-curvature="0" /><path
       d="m 405.4,296.7 v 5.5 c 0,1 -0.2,1.8 -0.7,2.3 -0.5,0.5 -1.2,0.8 -2.1,0.8 -1.9,0 -2.8,-1 -2.8,-3.1 v -5.5 h 1.1 v 5.4 c 0,1.5 0.6,2.2 1.8,2.2 1.1,0 1.7,-0.8 1.7,-2.3 v -5.4 h 1 z"
       id="path523"
       inkscape:connector-curvature="0" /><path
       d="m 414.7,305.2 h -1.2 l -2.1,-3.7 -2.1,3.7 h -1.1 l 2.6,-4.4 -2.5,-4.1 h 1.2 l 1.9,3.2 1.9,-3.2 h 1.1 l -2.5,4 z"
       id="path525"
       inkscape:connector-curvature="0" /><path
       d="M 425.1,305.2 H 424 v -7.5 h -2.4 v -1 h 5.9 v 1 h -2.4 z"
       id="path527"
       inkscape:connector-curvature="0" /><path
       d="m 436.1,305.2 h -4.9 v -8.5 h 4.9 v 1 h -3.8 v 2.6 h 3.6 v 0.9 h -3.6 v 3 h 3.8 z"
       id="path529"
       inkscape:connector-curvature="0" /><path
       d="m 445.3,304 v 0.9 c -0.6,0.2 -1.3,0.3 -2.1,0.3 -1.2,0 -2.1,-0.4 -2.7,-1.1 -0.6,-0.8 -1,-1.8 -1,-3.2 0,-1.3 0.3,-2.4 1,-3.2 0.7,-0.8 1.6,-1.2 2.8,-1.2 0.9,0 1.6,0.2 2.2,0.5 l -0.5,0.9 c -0.6,-0.3 -1.2,-0.5 -1.8,-0.5 -0.8,0 -1.5,0.3 -2,0.9 -0.5,0.6 -0.7,1.4 -0.7,2.5 0,1.1 0.2,2 0.7,2.5 0.5,0.6 1.1,0.9 2,0.9 0.8,0.1 1.4,0 2.1,-0.2 z"
       id="path531"
       inkscape:connector-curvature="0" /><path
       d="M 454.1,305.2 H 453 v -4 h -3.4 v 4 h -1.1 v -8.5 h 1.1 v 3.6 h 3.4 v -3.6 h 1.1 z"
       id="path533"
       inkscape:connector-curvature="0" /><path
       d="m 463,305.2 h -1.2 l -3.4,-7 v 0 c 0.1,1.1 0.1,1.9 0.1,2.4 v 4.6 h -1 v -8.5 h 1.2 l 3.4,7 v 0 c -0.1,-1.2 -0.1,-2 -0.1,-2.3 v -4.6 h 1 z"
       id="path535"
       inkscape:connector-curvature="0" /><path
       d="m 469.1,305.3 c -2.1,0 -3.1,-1.5 -3.1,-4.4 0,-2.9 1,-4.4 3.1,-4.4 1,0 1.8,0.4 2.3,1.1 0.5,0.8 0.8,1.8 0.8,3.2 0,1.4 -0.3,2.5 -0.8,3.2 -0.5,0.9 -1.3,1.3 -2.3,1.3 z m 0,-1 c 0.7,0 1.2,-0.3 1.5,-0.8 0.3,-0.6 0.5,-1.4 0.5,-2.6 0,-1.2 -0.2,-2 -0.5,-2.6 -0.3,-0.6 -0.8,-0.8 -1.5,-0.8 -1.3,0 -2,1.1 -2,3.4 0.1,2.3 0.7,3.4 2,3.4 z"
       id="path537"
       inkscape:connector-curvature="0" /><path
       d="m 475.8,305.2 v -8.5 h 1.1 v 7.5 h 3.7 v 1 z"
       id="path539"
       inkscape:connector-curvature="0" /><path
       d="m 487,305.3 c -2.1,0 -3.1,-1.5 -3.1,-4.4 0,-2.9 1,-4.4 3.1,-4.4 1,0 1.8,0.4 2.3,1.1 0.5,0.8 0.8,1.8 0.8,3.2 0,1.4 -0.3,2.5 -0.8,3.2 -0.6,0.9 -1.4,1.3 -2.3,1.3 z m 0,-1 c 0.7,0 1.2,-0.3 1.5,-0.8 0.3,-0.6 0.5,-1.4 0.5,-2.6 0,-1.2 -0.2,-2 -0.5,-2.6 -0.3,-0.6 -0.8,-0.8 -1.5,-0.8 -1.3,0 -2,1.1 -2,3.4 0,2.3 0.7,3.4 2,3.4 z"
       id="path541"
       inkscape:connector-curvature="0" /><path
       d="m 496.2,300.7 h 2.5 v 4.2 c -0.8,0.3 -1.6,0.4 -2.4,0.4 -1,0 -1.8,-0.4 -2.4,-1.2 -0.6,-0.8 -0.9,-1.8 -0.9,-3.2 0,-1.4 0.3,-2.4 0.9,-3.2 0.6,-0.8 1.5,-1.2 2.6,-1.2 0.7,0 1.4,0.2 2,0.5 l -0.4,0.9 c -0.6,-0.3 -1.1,-0.5 -1.6,-0.5 -0.7,0 -1.3,0.3 -1.7,0.9 -0.4,0.6 -0.6,1.4 -0.6,2.5 0,2.3 0.8,3.4 2.3,3.4 0.4,0 0.8,-0.1 1.2,-0.2 v -2.5 h -1.4 v -0.8 z"
       id="path543"
       inkscape:connector-curvature="0" /><path
       d="m 507,305.2 h -4.5 v -0.7 l 1.7,-0.1 v -6.8 l -1.7,-0.1 v -0.7 h 4.5 v 0.7 l -1.7,0.1 v 6.8 l 1.7,0.1 z"
       id="path545"
       inkscape:connector-curvature="0" /><path
       d="m 516.3,305.2 h -4.9 v -8.5 h 4.9 v 1 h -3.8 v 2.6 h 3.6 v 0.9 h -3.6 v 3 h 3.8 z"
       id="path547"
       inkscape:connector-curvature="0" /><path
       d="m 519.9,304.9 v -1 c 0.8,0.3 1.6,0.5 2.4,0.5 1.4,0 2,-0.5 2,-1.4 0,-0.4 -0.1,-0.7 -0.4,-0.9 -0.3,-0.2 -0.8,-0.5 -1.7,-0.8 -0.8,-0.3 -1.4,-0.6 -1.7,-1 -0.4,-0.4 -0.5,-0.9 -0.5,-1.5 0,-0.7 0.2,-1.2 0.7,-1.6 0.5,-0.4 1.2,-0.6 2,-0.6 0.9,0 1.7,0.2 2.4,0.5 l -0.4,1 c -0.7,-0.3 -1.4,-0.5 -2.1,-0.5 -1.1,0 -1.7,0.4 -1.7,1.2 0,0.4 0.1,0.7 0.4,1 0.3,0.2 0.8,0.5 1.6,0.8 1,0.3 1.6,0.7 1.9,1.1 0.3,0.4 0.5,0.8 0.5,1.4 0,0.7 -0.3,1.3 -0.8,1.8 -0.5,0.4 -1.3,0.6 -2.3,0.6 -1,-0.2 -1.8,-0.4 -2.3,-0.6 z"
       id="path549"
       inkscape:connector-curvature="0" /><g
       id="g581"><rect
         x="335.10001"
         y="192"
         width="17.4"
         height="17.4"
         id="rect551" /><rect
         x="335.10001"
         y="157.2"
         width="17.4"
         height="17.4"
         id="rect553" /><polygon
         points="335.1,174.6 317.7,174.6 317.7,139.8 300.2,139.8 300.2,209.4 317.7,209.4 317.7,192 335.1,192 "
         id="polygon555" /><rect
         x="369.89999"
         y="157.2"
         width="17.4"
         height="52.200001"
         id="rect557" /><g
         id="g561"><polygon
           points="404.7,209.4 404.7,157.2 456.9,157.2 456.9,206.3 456.9,278.8 439.5,278.8 439.5,209.4 439.5,174.6 422.1,174.6 422.1,209.4 "
           id="polygon559" /></g><g
         id="g571"><rect
           x="317.70001"
           y="261.60001"
           width="17.4"
           height="17.4"
           id="rect563" /><rect
           x="335.10001"
           y="226.8"
           width="17.4"
           height="34.799999"
           id="rect565" /><rect
           x="300.20001"
           y="226.8"
           width="17.4"
           height="34.799999"
           id="rect567" /><path
           d="m 369.9,279 h 52.2 v -52.2 h -52.2 z m 17.4,-34.8 h 17.4 v 17.4 h -17.4 z"
           id="path569"
           inkscape:connector-curvature="0" /></g><g
         id="g579"><rect
           x="509.10001"
           y="226.8"
           width="17.4"
           height="17.4"
           id="rect573" /><polygon
           points="509.1,261.6 509.1,244.2 491.7,244.2 491.7,209.4 474.3,209.4 474.3,279 491.7,279 491.7,261.6 "
           id="polygon575" /><rect
           x="509.10001"
           y="261.60001"
           width="17.4"
           height="17.4"
           id="rect577" /></g></g></g><line
     class="st0"
     x1="-184.8"
     y1="-54.499989"
     x2="426.30002"
     y2="-54.499989"
     id="line585"
     style="fill:none;stroke:#bbbdbf;stroke-width:1.06860006;stroke-linecap:round;stroke-miterlimit:10" /><line
     class="st0"
     x1="-184.8"
     y1="338.80002"
     x2="426.30002"
     y2="338.80002"
     id="line587"
     style="fill:none;stroke:#bbbdbf;stroke-width:1.06860006;stroke-linecap:round;stroke-miterlimit:10" /><line
     class="st0"
     x1="704.10004"
     y1="-54.499989"
     x2="1315.2001"
     y2="-54.499989"
     id="line589"
     style="fill:none;stroke:#bbbdbf;stroke-width:1.06860006;stroke-linecap:round;stroke-miterlimit:10" /><line
     class="st0"
     x1="704.10004"
     y1="338.80002"
     x2="1315.2001"
     y2="338.80002"
     id="line591"
     style="fill:none;stroke:#bbbdbf;stroke-width:1.06860006;stroke-linecap:round;stroke-miterlimit:10" /><g
     id="g629"
     transform="matrix(0.53248308,0,0,0.53248308,-151.12938,-248.0413)"
     inkscape:export-filename="/home/schu/code/reveal.js/kinvolk-logo-bg-black-bubble.svg.png"
     inkscape:export-xdpi="96"
     inkscape:export-ydpi="96"><polygon
       class="st1"
       points="358.8,707.6 302.6,707.6 358.8,757.3 "
       id="polygon593"
       style="fill:#706f6f" /><rect
       x="302.60001"
       y="484.60001"
       width="223"
       height="223"
       id="rect595" /><g
       id="g627"><rect
         x="358.79999"
         y="584.20001"
         class="st2"
         width="12.3"
         height="12.3"
         id="rect597"
         style="fill:#ffffff" /><rect
         x="358.79999"
         y="559.59998"
         class="st2"
         width="12.3"
         height="12.3"
         id="rect599"
         style="fill:#ffffff" /><polygon
         class="st2"
         points="346.5,571.9 346.5,547.3 334.2,547.3 334.2,596.5 346.5,596.5 346.5,584.2 358.8,584.2 358.8,571.9 "
         id="polygon601"
         style="fill:#ffffff" /><rect
         x="383.39999"
         y="559.59998"
         class="st2"
         width="12.3"
         height="36.900002"
         id="rect603"
         style="fill:#ffffff" /><g
         id="g607"><polygon
           class="st2"
           points="407.9,559.6 444.8,559.6 444.8,594.3 444.8,645.4 432.5,645.4 432.5,596.5 432.5,571.9 420.2,571.9 420.2,596.5 407.9,596.5 "
           id="polygon605"
           style="fill:#ffffff" /></g><g
         id="g617"><rect
           x="346.5"
           y="633.29999"
           class="st2"
           width="12.3"
           height="12.3"
           id="rect609"
           style="fill:#ffffff" /><rect
           x="358.79999"
           y="608.79999"
           class="st2"
           width="12.3"
           height="24.6"
           id="rect611"
           style="fill:#ffffff" /><rect
           x="334.20001"
           y="608.79999"
           class="st2"
           width="12.3"
           height="24.6"
           id="rect613"
           style="fill:#ffffff" /><path
           class="st2"
           d="m 383.4,645.6 h 36.9 V 608.7 H 383.4 Z M 395.6,621 h 12.3 v 12.3 h -12.3 z"
           id="path615"
           inkscape:connector-curvature="0"
           style="fill:#ffffff" /></g><g
         id="g625"><rect
           x="481.70001"
           y="608.79999"
           class="st2"
           width="12.3"
           height="12.3"
           id="rect619"
           style="fill:#ffffff" /><polygon
           class="st2"
           points="481.7,621 469.4,621 469.4,596.5 457.1,596.5 457.1,645.6 469.4,645.6 469.4,633.3 481.7,633.3 "
           id="polygon621"
           style="fill:#ffffff" /><rect
           x="481.70001"
           y="633.29999"
           class="st2"
           width="12.3"
           height="12.3"
           id="rect623"
           style="fill:#ffffff" /></g></g></g><g
     id="g717"
     transform="translate(-292.6,-474.6)"><g
       id="g679"><path
         d="m 305.2,1025.1 h 1 l 0.8,3 c 0.2,0.8 0.4,1.4 0.4,1.8 0,-0.2 0.1,-1.4 0.4,-3.6 l 0.4,-3.8 h 1 l -1.1,8.4 H 307 l -1,-3.3 c -0.2,-0.5 -0.3,-1.1 -0.4,-1.6 -0.1,0.7 -0.2,1.2 -0.4,1.6 l -0.9,3.3 h -1.1 l -1.2,-8.4 h 1 l 0.5,3.8 c 0.1,0.7 0.2,1.4 0.2,2.2 0.1,0.8 0.1,1.2 0.1,1.4 0.1,-0.6 0.2,-1.2 0.4,-1.8 z"
         id="path631"
         inkscape:connector-curvature="0" /><path
         d="m 317.1,1030.9 h -4.8 v -8.4 h 4.8 v 0.9 h -3.8 v 2.6 h 3.5 v 0.9 h -3.5 v 3 h 3.8 z"
         id="path633"
         inkscape:connector-curvature="0" /><path
         d="m 324.7,1022.5 h 2.5 c 1,0 1.8,0.2 2.3,0.5 0.5,0.3 0.7,0.9 0.7,1.6 0,0.5 -0.2,0.9 -0.5,1.2 -0.3,0.3 -0.7,0.5 -1.2,0.6 v 0.1 c 1.3,0.2 1.9,0.9 1.9,2 0,0.8 -0.2,1.4 -0.7,1.8 -0.5,0.4 -1.2,0.6 -2,0.6 h -3 z m 1.1,3.5 h 1.6 c 0.6,0 1,-0.1 1.3,-0.3 0.3,-0.2 0.4,-0.6 0.4,-1 0,-0.5 -0.1,-0.8 -0.4,-1 -0.3,-0.2 -0.8,-0.3 -1.4,-0.3 h -1.5 z m 0,0.9 v 3 h 1.8 c 1.2,0 1.8,-0.5 1.8,-1.6 0,-1 -0.6,-1.5 -1.9,-1.5 h -1.7 z"
         id="path635"
         inkscape:connector-curvature="0" /><path
         d="m 339.1,1022.5 v 5.4 c 0,1 -0.2,1.8 -0.7,2.3 -0.5,0.5 -1.2,0.8 -2.1,0.8 -1.8,0 -2.8,-1 -2.8,-3.1 v -5.4 h 1.1 v 5.4 c 0,1.5 0.6,2.2 1.8,2.2 1.1,0 1.7,-0.7 1.7,-2.2 v -5.4 z"
         id="path637"
         inkscape:connector-curvature="0" /><path
         d="m 347.3,1030.9 h -4.5 v -0.7 l 1.7,-0.1 v -6.8 l -1.7,-0.1 v -0.7 h 4.5 v 0.7 l -1.7,0.1 v 6.8 l 1.7,0.1 z"
         id="path639"
         inkscape:connector-curvature="0" /><path
         d="m 351.7,1030.9 v -8.4 h 1.1 v 7.4 h 3.6 v 1 z"
         id="path641"
         inkscape:connector-curvature="0" /><path
         d="m 359.9,1030.9 v -8.4 h 2 c 1.2,0 2.2,0.4 2.8,1.1 0.7,0.7 1,1.7 1,3 0,1.4 -0.4,2.4 -1.1,3.2 -0.7,0.7 -1.7,1.1 -3,1.1 z m 1.1,-7.5 v 6.6 h 0.6 c 2,0 3.1,-1.1 3.1,-3.3 0,-2.2 -0.9,-3.2 -2.8,-3.2 H 361 Z"
         id="path643"
         inkscape:connector-curvature="0" /><path
         d="m 373.4,1030.9 v -8.4 h 1.1 v 7.4 h 3.6 v 1 z"
         id="path645"
         inkscape:connector-curvature="0" /><path
         d="m 386.7,1030.9 h -4.5 v -0.7 l 1.7,-0.1 v -6.8 l -1.7,-0.1 v -0.7 h 4.5 v 0.7 l -1.7,0.1 v 6.8 l 1.7,0.1 z"
         id="path647"
         inkscape:connector-curvature="0" /><path
         d="m 396,1030.9 h -1.2 l -3.3,-6.9 v 0 c 0.1,1.1 0.1,1.9 0.1,2.4 v 4.6 h -1 v -8.4 h 1.2 l 3.3,6.9 v 0 c -0.1,-1.2 -0.1,-1.9 -0.1,-2.3 v -4.6 h 1 z"
         id="path649"
         inkscape:connector-curvature="0" /><path
         d="m 404.9,1022.5 v 5.4 c 0,1 -0.2,1.8 -0.7,2.3 -0.5,0.5 -1.2,0.8 -2.1,0.8 -1.8,0 -2.8,-1 -2.8,-3.1 v -5.4 h 1.1 v 5.4 c 0,1.5 0.6,2.2 1.8,2.2 1.1,0 1.7,-0.7 1.7,-2.2 v -5.4 z"
         id="path651"
         inkscape:connector-curvature="0" /><path
         d="m 414.1,1030.9 h -1.2 l -2,-3.6 -2.1,3.6 h -1.1 l 2.6,-4.4 -2.4,-4 h 1.1 l 1.9,3.2 1.9,-3.2 h 1.1 l -2.4,4 z"
         id="path653"
         inkscape:connector-curvature="0" /><path
         d="m 424.3,1030.9 h -1.1 v -7.5 h -2.4 v -0.9 h 5.9 v 0.9 h -2.4 z"
         id="path655"
         inkscape:connector-curvature="0" /><path
         d="m 435.2,1030.9 h -4.8 v -8.4 h 4.8 v 0.9 h -3.8 v 2.6 h 3.5 v 0.9 h -3.5 v 3 h 3.8 z"
         id="path657"
         inkscape:connector-curvature="0" /><path
         d="m 444.4,1029.7 v 0.9 c -0.6,0.2 -1.2,0.3 -2.1,0.3 -1.2,0 -2.1,-0.4 -2.7,-1.1 -0.6,-0.7 -0.9,-1.8 -0.9,-3.2 0,-1.3 0.3,-2.4 1,-3.1 0.7,-0.8 1.6,-1.2 2.8,-1.2 0.8,0 1.6,0.2 2.2,0.5 l -0.4,0.9 c -0.6,-0.3 -1.2,-0.4 -1.8,-0.4 -0.8,0 -1.5,0.3 -2,0.9 -0.5,0.6 -0.7,1.4 -0.7,2.5 0,1.1 0.2,1.9 0.7,2.5 0.5,0.6 1.1,0.9 2,0.9 0.5,0 1.1,-0.2 1.9,-0.4 z"
         id="path659"
         inkscape:connector-curvature="0" /><path
         d="m 453,1030.9 h -1.1 v -3.9 h -3.4 v 3.9 h -1.1 v -8.4 h 1.1 v 3.5 h 3.4 v -3.5 h 1.1 z"
         id="path661"
         inkscape:connector-curvature="0" /><path
         d="m 461.8,1030.9 h -1.2 l -3.3,-6.9 v 0 c 0.1,1.1 0.1,1.9 0.1,2.4 v 4.6 h -1 v -8.4 h 1.2 l 3.3,6.9 v 0 c -0.1,-1.2 -0.1,-1.9 -0.1,-2.3 v -4.6 h 1 z"
         id="path663"
         inkscape:connector-curvature="0" /><path
         d="m 467.9,1031 c -2,0 -3.1,-1.4 -3.1,-4.3 0,-2.9 1,-4.3 3.1,-4.3 1,0 1.7,0.4 2.3,1.1 0.5,0.7 0.8,1.8 0.8,3.2 0,1.4 -0.3,2.4 -0.8,3.2 -0.6,0.7 -1.4,1.1 -2.3,1.1 z m 0,-0.9 c 0.7,0 1.1,-0.3 1.5,-0.8 0.3,-0.6 0.5,-1.4 0.5,-2.6 0,-1.2 -0.2,-2 -0.5,-2.6 -0.3,-0.5 -0.8,-0.8 -1.4,-0.8 -1.3,0 -1.9,1.1 -1.9,3.4 -0.2,2.2 0.5,3.4 1.8,3.4 z"
         id="path665"
         inkscape:connector-curvature="0" /><path
         d="m 474.5,1030.9 v -8.4 h 1.1 v 7.4 h 3.6 v 1 z"
         id="path667"
         inkscape:connector-curvature="0" /><path
         d="m 485.5,1031 c -2,0 -3.1,-1.4 -3.1,-4.3 0,-2.9 1,-4.3 3.1,-4.3 1,0 1.7,0.4 2.3,1.1 0.5,0.7 0.8,1.8 0.8,3.2 0,1.4 -0.3,2.4 -0.8,3.2 -0.6,0.7 -1.3,1.1 -2.3,1.1 z m 0,-0.9 c 0.7,0 1.1,-0.3 1.5,-0.8 0.3,-0.6 0.5,-1.4 0.5,-2.6 0,-1.2 -0.2,-2 -0.5,-2.6 -0.3,-0.5 -0.8,-0.8 -1.4,-0.8 -1.3,0 -1.9,1.1 -1.9,3.4 -0.1,2.2 0.5,3.4 1.8,3.4 z"
         id="path669"
         inkscape:connector-curvature="0" /><path
         d="m 494.6,1026.4 h 2.4 v 4.1 c -0.7,0.3 -1.6,0.4 -2.4,0.4 -1,0 -1.8,-0.4 -2.4,-1.1 -0.6,-0.8 -0.8,-1.8 -0.8,-3.2 0,-1.3 0.3,-2.4 0.9,-3.2 0.6,-0.8 1.5,-1.1 2.6,-1.1 0.7,0 1.4,0.2 2,0.5 l -0.4,0.9 c -0.6,-0.3 -1.1,-0.5 -1.6,-0.5 -0.7,0 -1.3,0.3 -1.7,0.9 -0.4,0.6 -0.6,1.4 -0.6,2.5 0,2.3 0.8,3.4 2.3,3.4 0.4,0 0.8,-0.1 1.2,-0.2 v -2.5 h -1.4 v -0.9 z"
         id="path671"
         inkscape:connector-curvature="0" /><path
         d="m 505.3,1030.9 h -4.5 v -0.7 l 1.7,-0.1 v -6.8 l -1.7,-0.1 v -0.7 h 4.5 v 0.7 l -1.7,0.1 v 6.8 l 1.7,0.1 z"
         id="path673"
         inkscape:connector-curvature="0" /><path
         d="m 514.5,1030.9 h -4.8 v -8.4 h 4.8 v 0.9 h -3.8 v 2.6 h 3.5 v 0.9 h -3.5 v 3 h 3.8 z"
         id="path675"
         inkscape:connector-curvature="0" /><path
         d="m 518,1030.6 v -1 c 0.8,0.3 1.6,0.5 2.4,0.5 1.3,0 2,-0.5 2,-1.4 0,-0.4 -0.1,-0.7 -0.4,-0.9 -0.3,-0.2 -0.8,-0.5 -1.6,-0.8 -0.8,-0.3 -1.4,-0.6 -1.7,-1 -0.3,-0.4 -0.5,-0.9 -0.5,-1.5 0,-0.7 0.2,-1.2 0.7,-1.6 0.5,-0.4 1.2,-0.6 2,-0.6 0.9,0 1.7,0.1 2.4,0.4 l -0.4,0.9 c -0.7,-0.3 -1.4,-0.4 -2.1,-0.4 -1.1,0 -1.7,0.4 -1.7,1.2 0,0.4 0.1,0.7 0.4,0.9 0.3,0.2 0.8,0.5 1.6,0.8 0.9,0.3 1.6,0.7 1.9,1 0.3,0.4 0.5,0.8 0.5,1.4 0,0.7 -0.3,1.3 -0.8,1.7 -0.5,0.4 -1.3,0.6 -2.3,0.6 -1,0.2 -1.8,0.1 -2.4,-0.2 z"
         id="path677"
         inkscape:connector-curvature="0" /></g><g
       id="g715"><g
         id="g687"><rect
           x="321.39999"
           y="1003.2"
           width="9.6000004"
           height="9.6000004"
           id="rect681" /><rect
           x="321.39999"
           y="984"
           width="9.6000004"
           height="9.6000004"
           id="rect683" /><polygon
           points="321.4,993.6 311.8,993.6 311.8,974.4 302.2,974.4 302.2,1012.8 311.8,1012.8 311.8,1003.2 321.4,1003.2 "
           id="polygon685" /></g><rect
         x="340.79999"
         y="984"
         width="9.6000004"
         height="28.799999"
         id="rect689" /><polygon
         points="360.1,1012.8 360.1,984 388.9,984 388.9,1011.1 388.9,1012.8 379.3,1012.8 379.3,993.6 369.7,993.6 369.7,1012.8 "
         id="polygon691" /><g
         id="g699"><rect
           x="408.39999"
           y="1003.2"
           width="9.6000004"
           height="9.6000004"
           id="rect693" /><rect
           x="418"
           y="984"
           width="9.6000004"
           height="19.200001"
           id="rect695" /><rect
           x="398.79999"
           y="984"
           width="9.6000004"
           height="19.200001"
           id="rect697" /></g><g
         id="g707"><rect
           x="514.70001"
           y="984"
           width="9.6000004"
           height="9.6000004"
           id="rect701" /><polygon
           points="514.7,1003.2 514.7,993.6 505.1,993.6 505.1,974.4 495.5,974.4 495.5,1012.8 505.1,1012.8 505.1,1003.2 "
           id="polygon703" /><rect
           x="514.70001"
           y="1003.2"
           width="9.6000004"
           height="9.6000004"
           id="rect705" /></g><path
         d="m 437.4,1012.9 h 29.1 V 984 h -29.1 z m 9.8,-19.3 h 9.7 v 9.7 h -9.7 z"
         id="path709"
         inkscape:connector-curvature="0" /><rect
         x="437.39999"
         y="945.09998"
         width="9.8000002"
         height="29.1"
         id="rect711" /><polygon
         points="456.9,974.2 456.9,945.1 485.8,945.1 485.8,972.7 485.8,1012.9 476.2,1012.9 476.2,974.4 476.2,955 466.5,955 466.5,974.2 "
         id="polygon713" /></g></g><g
     id="g801"
     transform="translate(-292.6,-474.6)"><g
       id="g767"><path
         class="st2"
         d="m 1204.2,299.3 h 1 l 0.8,3 c 0.2,0.8 0.4,1.4 0.4,1.8 0,-0.2 0.1,-1.4 0.4,-3.6 l 0.4,-3.9 h 1 l -1.1,8.5 h -1.1 l -1,-3.4 c -0.2,-0.5 -0.3,-1.1 -0.4,-1.6 -0.1,0.7 -0.2,1.2 -0.4,1.6 l -0.9,3.4 h -1.1 l -1.2,-8.5 h 1 l 0.5,3.9 c 0.1,0.7 0.2,1.4 0.2,2.2 0.1,0.8 0.1,1.2 0.1,1.4 0.1,-0.6 0.2,-1.2 0.4,-1.8 z"
         id="path719"
         inkscape:connector-curvature="0"
         style="fill:#ffffff" /><path
         class="st2"
         d="m 1216.2,305.2 h -4.9 v -8.5 h 4.9 v 1 h -3.8 v 2.6 h 3.6 v 0.9 h -3.6 v 3 h 3.8 z"
         id="path721"
         inkscape:connector-curvature="0"
         style="fill:#ffffff" /><path
         class="st2"
         d="m 1223.9,296.7 h 2.6 c 1.1,0 1.8,0.2 2.3,0.5 0.5,0.3 0.7,0.9 0.7,1.6 0,0.5 -0.2,0.9 -0.5,1.2 -0.3,0.3 -0.7,0.5 -1.2,0.6 v 0.1 c 1.3,0.2 1.9,0.9 1.9,2 0,0.8 -0.2,1.4 -0.7,1.8 -0.5,0.4 -1.2,0.7 -2,0.7 h -3.1 z m 1.1,3.6 h 1.7 c 0.6,0 1,-0.1 1.3,-0.3 0.3,-0.2 0.4,-0.6 0.4,-1.1 0,-0.5 -0.1,-0.8 -0.4,-1 -0.3,-0.2 -0.8,-0.3 -1.4,-0.3 h -1.5 v 2.7 z m 0,0.9 v 3.1 h 1.8 c 1.2,0 1.8,-0.5 1.8,-1.6 0,-1 -0.6,-1.5 -1.9,-1.5 z"
         id="path723"
         inkscape:connector-curvature="0"
         style="fill:#ffffff" /><path
         class="st2"
         d="m 1238.4,296.7 v 5.5 c 0,1 -0.2,1.8 -0.7,2.3 -0.5,0.5 -1.2,0.8 -2.1,0.8 -1.9,0 -2.8,-1 -2.8,-3.1 v -5.5 h 1.1 v 5.4 c 0,1.5 0.6,2.2 1.8,2.2 1.1,0 1.7,-0.8 1.7,-2.3 v -5.4 h 1 z"
         id="path725"
         inkscape:connector-curvature="0"
         style="fill:#ffffff" /><path
         class="st2"
         d="m 1246.7,305.2 h -4.5 v -0.7 l 1.7,-0.1 v -6.8 l -1.7,-0.1 v -0.7 h 4.5 v 0.7 l -1.7,0.1 v 6.8 l 1.7,0.1 z"
         id="path727"
         inkscape:connector-curvature="0"
         style="fill:#ffffff" /><path
         class="st2"
         d="m 1251.2,305.2 v -8.5 h 1.1 v 7.5 h 3.7 v 1 z"
         id="path729"
         inkscape:connector-curvature="0"
         style="fill:#ffffff" /><path
         class="st2"
         d="m 1259.5,305.2 v -8.5 h 2 c 1.2,0 2.2,0.4 2.9,1.1 0.7,0.7 1,1.8 1,3.1 0,1.4 -0.4,2.5 -1.1,3.2 -0.7,0.7 -1.7,1.1 -3.1,1.1 z m 1.1,-7.6 v 6.6 h 0.6 c 2.1,0 3.1,-1.1 3.1,-3.4 0,-2.2 -1,-3.3 -2.9,-3.3 h -0.8 z"
         id="path731"
         inkscape:connector-curvature="0"
         style="fill:#ffffff" /><path
         class="st2"
         d="m 1273.2,305.2 v -8.5 h 1.1 v 7.5 h 3.7 v 1 z"
         id="path733"
         inkscape:connector-curvature="0"
         style="fill:#ffffff" /><path
         class="st2"
         d="m 1286.6,305.2 h -4.5 v -0.7 l 1.7,-0.1 v -6.8 l -1.7,-0.1 v -0.7 h 4.5 v 0.7 l -1.7,0.1 v 6.8 l 1.7,0.1 z"
         id="path735"
         inkscape:connector-curvature="0"
         style="fill:#ffffff" /><path
         class="st2"
         d="m 1296,305.2 h -1.2 l -3.4,-7 v 0 c 0.1,1.1 0.1,1.9 0.1,2.4 v 4.6 h -1 v -8.5 h 1.2 l 3.4,7 v 0 c -0.1,-1.2 -0.1,-2 -0.1,-2.3 v -4.6 h 1 z"
         id="path737"
         inkscape:connector-curvature="0"
         style="fill:#ffffff" /><path
         class="st2"
         d="m 1305,296.7 v 5.5 c 0,1 -0.2,1.8 -0.7,2.3 -0.5,0.5 -1.2,0.8 -2.1,0.8 -1.9,0 -2.8,-1 -2.8,-3.1 v -5.5 h 1.1 v 5.4 c 0,1.5 0.6,2.2 1.8,2.2 1.1,0 1.7,-0.8 1.7,-2.3 v -5.4 h 1 z"
         id="path739"
         inkscape:connector-curvature="0"
         style="fill:#ffffff" /><path
         class="st2"
         d="m 1314.3,305.2 h -1.2 l -2.1,-3.7 -2.1,3.7 h -1.1 l 2.6,-4.4 -2.5,-4.1 h 1.2 l 1.9,3.2 1.9,-3.2 h 1.1 l -2.5,4 z"
         id="path741"
         inkscape:connector-curvature="0"
         style="fill:#ffffff" /><path
         class="st2"
         d="m 1324.7,305.2 h -1.1 v -7.5 h -2.4 v -1 h 5.9 v 1 h -2.4 z"
         id="path743"
         inkscape:connector-curvature="0"
         style="fill:#ffffff" /><path
         class="st2"
         d="m 1335.6,305.2 h -4.9 v -8.5 h 4.9 v 1 h -3.8 v 2.6 h 3.6 v 0.9 h -3.6 v 3 h 3.8 z"
         id="path745"
         inkscape:connector-curvature="0"
         style="fill:#ffffff" /><path
         class="st2"
         d="m 1344.9,304 v 0.9 c -0.6,0.2 -1.3,0.3 -2.1,0.3 -1.2,0 -2.1,-0.4 -2.7,-1.1 -0.6,-0.8 -1,-1.8 -1,-3.2 0,-1.3 0.3,-2.4 1,-3.2 0.7,-0.8 1.6,-1.2 2.8,-1.2 0.9,0 1.6,0.2 2.2,0.5 l -0.5,0.9 c -0.6,-0.3 -1.2,-0.5 -1.8,-0.5 -0.8,0 -1.5,0.3 -2,0.9 -0.5,0.6 -0.7,1.4 -0.7,2.5 0,1.1 0.2,2 0.7,2.5 0.5,0.6 1.1,0.9 2,0.9 0.7,0.1 1.4,0 2.1,-0.2 z"
         id="path747"
         inkscape:connector-curvature="0"
         style="fill:#ffffff" /><path
         class="st2"
         d="m 1353.7,305.2 h -1.1 v -4 h -3.4 v 4 h -1.1 v -8.5 h 1.1 v 3.6 h 3.4 v -3.6 h 1.1 z"
         id="path749"
         inkscape:connector-curvature="0"
         style="fill:#ffffff" /><path
         class="st2"
         d="m 1362.6,305.2 h -1.2 l -3.4,-7 v 0 c 0.1,1.1 0.1,1.9 0.1,2.4 v 4.6 h -1 v -8.5 h 1.2 l 3.4,7 v 0 c -0.1,-1.2 -0.1,-2 -0.1,-2.3 v -4.6 h 1 z"
         id="path751"
         inkscape:connector-curvature="0"
         style="fill:#ffffff" /><path
         class="st2"
         d="m 1368.7,305.3 c -2.1,0 -3.1,-1.5 -3.1,-4.4 0,-2.9 1,-4.4 3.1,-4.4 1,0 1.8,0.4 2.3,1.1 0.5,0.8 0.8,1.8 0.8,3.2 0,1.4 -0.3,2.5 -0.8,3.2 -0.5,0.9 -1.3,1.3 -2.3,1.3 z m 0,-1 c 0.7,0 1.2,-0.3 1.5,-0.8 0.3,-0.6 0.5,-1.4 0.5,-2.6 0,-1.2 -0.2,-2 -0.5,-2.6 -0.3,-0.6 -0.8,-0.8 -1.5,-0.8 -1.3,0 -2,1.1 -2,3.4 0.1,2.3 0.7,3.4 2,3.4 z"
         id="path753"
         inkscape:connector-curvature="0"
         style="fill:#ffffff" /><path
         class="st2"
         d="m 1375.4,305.2 v -8.5 h 1.1 v 7.5 h 3.7 v 1 z"
         id="path755"
         inkscape:connector-curvature="0"
         style="fill:#ffffff" /><path
         class="st2"
         d="m 1386.5,305.3 c -2.1,0 -3.1,-1.5 -3.1,-4.4 0,-2.9 1,-4.4 3.1,-4.4 1,0 1.8,0.4 2.3,1.1 0.5,0.8 0.8,1.8 0.8,3.2 0,1.4 -0.3,2.5 -0.8,3.2 -0.5,0.9 -1.3,1.3 -2.3,1.3 z m 0,-1 c 0.7,0 1.2,-0.3 1.5,-0.8 0.3,-0.6 0.5,-1.4 0.5,-2.6 0,-1.2 -0.2,-2 -0.5,-2.6 -0.3,-0.6 -0.8,-0.8 -1.5,-0.8 -1.3,0 -2,1.1 -2,3.4 0.1,2.3 0.7,3.4 2,3.4 z"
         id="path757"
         inkscape:connector-curvature="0"
         style="fill:#ffffff" /><path
         class="st2"
         d="m 1395.8,300.7 h 2.5 v 4.2 c -0.8,0.3 -1.6,0.4 -2.4,0.4 -1,0 -1.8,-0.4 -2.4,-1.2 -0.6,-0.8 -0.9,-1.8 -0.9,-3.2 0,-1.4 0.3,-2.4 0.9,-3.2 0.6,-0.8 1.5,-1.2 2.6,-1.2 0.7,0 1.4,0.2 2,0.5 l -0.4,0.9 c -0.6,-0.3 -1.1,-0.5 -1.6,-0.5 -0.7,0 -1.3,0.3 -1.7,0.9 -0.4,0.6 -0.6,1.4 -0.6,2.5 0,2.3 0.8,3.4 2.3,3.4 0.4,0 0.8,-0.1 1.2,-0.2 v -2.5 h -1.4 v -0.8 z"
         id="path759"
         inkscape:connector-curvature="0"
         style="fill:#ffffff" /><path
         class="st2"
         d="m 1406.6,305.2 h -4.5 v -0.7 l 1.7,-0.1 v -6.8 l -1.7,-0.1 v -0.7 h 4.5 v 0.7 l -1.7,0.1 v 6.8 l 1.7,0.1 z"
         id="path761"
         inkscape:connector-curvature="0"
         style="fill:#ffffff" /><path
         class="st2"
         d="m 1415.9,305.2 h -4.9 v -8.5 h 4.9 v 1 h -3.8 v 2.6 h 3.6 v 0.9 h -3.6 v 3 h 3.8 z"
         id="path763"
         inkscape:connector-curvature="0"
         style="fill:#ffffff" /><path
         class="st2"
         d="m 1419.4,304.9 v -1 c 0.8,0.3 1.6,0.5 2.4,0.5 1.4,0 2,-0.5 2,-1.4 0,-0.4 -0.1,-0.7 -0.4,-0.9 -0.3,-0.2 -0.8,-0.5 -1.7,-0.8 -0.8,-0.3 -1.4,-0.6 -1.7,-1 -0.4,-0.4 -0.5,-0.9 -0.5,-1.5 0,-0.7 0.2,-1.2 0.7,-1.6 0.5,-0.4 1.2,-0.6 2,-0.6 0.9,0 1.7,0.2 2.4,0.5 l -0.4,1 c -0.7,-0.3 -1.4,-0.5 -2.1,-0.5 -1.1,0 -1.7,0.4 -1.7,1.2 0,0.4 0.1,0.7 0.4,1 0.3,0.2 0.8,0.5 1.6,0.8 1,0.3 1.6,0.7 1.9,1.1 0.3,0.4 0.5,0.8 0.5,1.4 0,0.7 -0.3,1.3 -0.8,1.8 -0.5,0.4 -1.3,0.6 -2.3,0.6 -0.9,-0.2 -1.7,-0.4 -2.3,-0.6 z"
         id="path765"
         inkscape:connector-curvature="0"
         style="fill:#ffffff" /></g><g
       id="g799"><rect
         x="1234.7"
         y="192"
         class="st2"
         width="17.4"
         height="17.4"
         id="rect769"
         style="fill:#ffffff" /><rect
         x="1234.7"
         y="157.2"
         class="st2"
         width="17.4"
         height="17.4"
         id="rect771"
         style="fill:#ffffff" /><polygon
         class="st2"
         points="1234.7,174.6 1217.2,174.6 1217.2,139.8 1199.8,139.8 1199.8,209.4 1217.2,209.4 1217.2,192 1234.7,192 "
         id="polygon773"
         style="fill:#ffffff" /><rect
         x="1269.5"
         y="157.2"
         class="st2"
         width="17.4"
         height="52.200001"
         id="rect775"
         style="fill:#ffffff" /><g
         id="g779"><polygon
           class="st2"
           points="1304.3,209.4 1304.3,157.2 1356.5,157.2 1356.5,206.3 1356.5,278.8 1339.1,278.8 1339.1,209.4 1339.1,174.6 1321.7,174.6 1321.7,209.4 "
           id="polygon777"
           style="fill:#ffffff" /></g><g
         id="g789"><rect
           x="1217.2"
           y="261.60001"
           class="st2"
           width="17.4"
           height="17.4"
           id="rect781"
           style="fill:#ffffff" /><rect
           x="1234.7"
           y="226.8"
           class="st2"
           width="17.4"
           height="34.799999"
           id="rect783"
           style="fill:#ffffff" /><rect
           x="1199.8"
           y="226.8"
           class="st2"
           width="17.4"
           height="34.799999"
           id="rect785"
           style="fill:#ffffff" /><path
           class="st2"
           d="m 1269.5,279 h 52.2 v -52.2 h -52.2 z m 17.4,-34.8 h 17.4 v 17.4 h -17.4 z"
           id="path787"
           inkscape:connector-curvature="0"
           style="fill:#ffffff" /></g><g
         id="g797"><rect
           x="1408.7"
           y="226.8"
           class="st2"
           width="17.4"
           height="17.4"
           id="rect791"
           style="fill:#ffffff" /><polygon
           class="st2"
           points="1408.7,261.6 1408.7,244.2 1391.3,244.2 1391.3,209.4 1373.9,209.4 1373.9,279 1391.3,279 1391.3,261.6 "
           id="polygon793"
           style="fill:#ffffff" /><rect
           x="1408.7"
           y="261.60001"
           class="st2"
           width="17.4"
           height="17.4"
           id="rect795"
           style="fill:#ffffff" /></g></g></g><polygon
     class="st1"
     points="1258.4,757.3 1258.4,707.6 1202.2,707.6 "
     id="polygon803"
     style="fill:#706f6f"
     transform="translate(-292.6,-474.6)" /><rect
     x="909.59998"
     y="10.00001"
     class="st2"
     width="223"
     height="223"
     id="rect805"
     style="fill:#ffffff" /><g
     id="g837"
     transform="translate(-292.6,-474.6)"><rect
       x="1258.4"
       y="584.20001"
       width="12.3"
       height="12.3"
       id="rect807" /><rect
       x="1258.4"
       y="559.59998"
       width="12.3"
       height="12.3"
       id="rect809" /><polygon
       points="1258.4,571.9 1246.1,571.9 1246.1,547.3 1233.8,547.3 1233.8,596.5 1246.1,596.5 1246.1,584.2 1258.4,584.2 "
       id="polygon811" /><rect
       x="1282.9"
       y="559.59998"
       width="12.3"
       height="36.900002"
       id="rect813" /><g
       id="g817"><polygon
         points="1307.5,596.5 1307.5,559.6 1344.4,559.6 1344.4,594.3 1344.4,645.4 1332.1,645.4 1332.1,596.5 1332.1,571.9 1319.8,571.9 1319.8,596.5 "
         id="polygon815" /></g><g
       id="g827"><rect
         x="1246.1"
         y="633.29999"
         width="12.3"
         height="12.3"
         id="rect819" /><rect
         x="1258.4"
         y="608.79999"
         width="12.3"
         height="24.6"
         id="rect821" /><rect
         x="1233.8"
         y="608.79999"
         width="12.3"
         height="24.6"
         id="rect823" /><path
         d="m 1282.9,645.6 h 36.9 v -36.9 h -36.9 z m 12.3,-24.6 h 12.3 v 12.3 h -12.3 z"
         id="path825"
         inkscape:connector-curvature="0" /></g><g
       id="g835"><rect
         x="1381.3"
         y="608.79999"
         width="12.3"
         height="12.3"
         id="rect829" /><polygon
         points="1381.3,633.3 1381.3,621 1369,621 1369,596.5 1356.7,596.5 1356.7,645.6 1369,645.6 1369,633.3 "
         id="polygon831" /><rect
         x="1381.3"
         y="633.29999"
         width="12.3"
         height="12.3"
         id="rect833" /></g></g><g
     id="g925"
     transform="translate(-292.6,-474.6)"><g
       id="g887"><path
         class="st2"
         d="m 1204.8,1025.1 h 1 l 0.8,3 c 0.2,0.8 0.4,1.4 0.4,1.8 0,-0.2 0.1,-1.4 0.4,-3.6 l 0.4,-3.8 h 1 l -1.1,8.4 h -1.1 l -1,-3.3 c -0.2,-0.5 -0.3,-1.1 -0.4,-1.6 -0.1,0.7 -0.2,1.2 -0.4,1.6 l -0.9,3.3 h -1.1 l -1.2,-8.4 h 1 l 0.5,3.8 c 0.1,0.7 0.2,1.4 0.2,2.2 0.1,0.8 0.1,1.2 0.1,1.4 0.1,-0.6 0.2,-1.2 0.4,-1.8 z"
         id="path839"
         inkscape:connector-curvature="0"
         style="fill:#ffffff" /><path
         class="st2"
         d="m 1216.6,1030.9 h -4.8 v -8.4 h 4.8 v 0.9 h -3.8 v 2.6 h 3.5 v 0.9 h -3.5 v 3 h 3.8 z"
         id="path841"
         inkscape:connector-curvature="0"
         style="fill:#ffffff" /><path
         class="st2"
         d="m 1224.3,1022.5 h 2.5 c 1,0 1.8,0.2 2.3,0.5 0.5,0.3 0.7,0.9 0.7,1.6 0,0.5 -0.2,0.9 -0.5,1.2 -0.3,0.3 -0.7,0.5 -1.2,0.6 v 0.1 c 1.3,0.2 1.9,0.9 1.9,2 0,0.8 -0.2,1.4 -0.7,1.8 -0.5,0.4 -1.2,0.6 -2,0.6 h -3 z m 1.1,3.5 h 1.6 c 0.6,0 1,-0.1 1.3,-0.3 0.3,-0.2 0.4,-0.6 0.4,-1 0,-0.5 -0.1,-0.8 -0.4,-1 -0.3,-0.2 -0.8,-0.3 -1.4,-0.3 h -1.5 z m 0,0.9 v 3 h 1.8 c 1.2,0 1.8,-0.5 1.8,-1.6 0,-1 -0.6,-1.5 -1.9,-1.5 h -1.7 z"
         id="path843"
         inkscape:connector-curvature="0"
         style="fill:#ffffff" /><path
         class="st2"
         d="m 1238.7,1022.5 v 5.4 c 0,1 -0.2,1.8 -0.7,2.3 -0.5,0.5 -1.2,0.8 -2.1,0.8 -1.8,0 -2.8,-1 -2.8,-3.1 v -5.4 h 1.1 v 5.4 c 0,1.5 0.6,2.2 1.8,2.2 1.1,0 1.7,-0.7 1.7,-2.2 v -5.4 z"
         id="path845"
         inkscape:connector-curvature="0"
         style="fill:#ffffff" /><path
         class="st2"
         d="m 1246.9,1030.9 h -4.5 v -0.7 l 1.7,-0.1 v -6.8 l -1.7,-0.1 v -0.7 h 4.5 v 0.7 l -1.7,0.1 v 6.8 l 1.7,0.1 z"
         id="path847"
         inkscape:connector-curvature="0"
         style="fill:#ffffff" /><path
         class="st2"
         d="m 1251.3,1030.9 v -8.4 h 1.1 v 7.4 h 3.6 v 1 z"
         id="path849"
         inkscape:connector-curvature="0"
         style="fill:#ffffff" /><path
         class="st2"
         d="m 1259.5,1030.9 v -8.4 h 2 c 1.2,0 2.2,0.4 2.8,1.1 0.7,0.7 1,1.7 1,3 0,1.4 -0.4,2.4 -1.1,3.2 -0.7,0.7 -1.7,1.1 -3,1.1 z m 1.1,-7.5 v 6.6 h 0.6 c 2,0 3.1,-1.1 3.1,-3.3 0,-2.2 -0.9,-3.2 -2.8,-3.2 h -0.9 z"
         id="path851"
         inkscape:connector-curvature="0"
         style="fill:#ffffff" /><path
         class="st2"
         d="m 1273,1030.9 v -8.4 h 1.1 v 7.4 h 3.6 v 1 z"
         id="path853"
         inkscape:connector-curvature="0"
         style="fill:#ffffff" /><path
         class="st2"
         d="m 1286.2,1030.9 h -4.5 v -0.7 l 1.7,-0.1 v -6.8 l -1.7,-0.1 v -0.7 h 4.5 v 0.7 l -1.7,0.1 v 6.8 l 1.7,0.1 z"
         id="path855"
         inkscape:connector-curvature="0"
         style="fill:#ffffff" /><path
         class="st2"
         d="m 1295.6,1030.9 h -1.2 l -3.3,-6.9 v 0 c 0.1,1.1 0.1,1.9 0.1,2.4 v 4.6 h -1 v -8.4 h 1.2 l 3.3,6.9 v 0 c -0.1,-1.2 -0.1,-1.9 -0.1,-2.3 v -4.6 h 1 z"
         id="path857"
         inkscape:connector-curvature="0"
         style="fill:#ffffff" /><path
         class="st2"
         d="m 1304.5,1022.5 v 5.4 c 0,1 -0.2,1.8 -0.7,2.3 -0.5,0.5 -1.2,0.8 -2.1,0.8 -1.8,0 -2.8,-1 -2.8,-3.1 v -5.4 h 1.1 v 5.4 c 0,1.5 0.6,2.2 1.8,2.2 1.1,0 1.7,-0.7 1.7,-2.2 v -5.4 z"
         id="path859"
         inkscape:connector-curvature="0"
         style="fill:#ffffff" /><path
         class="st2"
         d="m 1313.7,1030.9 h -1.2 l -2,-3.6 -2.1,3.6 h -1.1 l 2.6,-4.4 -2.4,-4 h 1.1 l 1.9,3.2 1.9,-3.2 h 1.1 l -2.4,4 z"
         id="path861"
         inkscape:connector-curvature="0"
         style="fill:#ffffff" /><path
         class="st2"
         d="m 1323.9,1030.9 h -1.1 v -7.5 h -2.4 v -0.9 h 5.9 v 0.9 h -2.4 z"
         id="path863"
         inkscape:connector-curvature="0"
         style="fill:#ffffff" /><path
         class="st2"
         d="m 1334.8,1030.9 h -4.8 v -8.4 h 4.8 v 0.9 h -3.8 v 2.6 h 3.5 v 0.9 h -3.5 v 3 h 3.8 z"
         id="path865"
         inkscape:connector-curvature="0"
         style="fill:#ffffff" /><path
         class="st2"
         d="m 1343.9,1029.7 v 0.9 c -0.6,0.2 -1.2,0.3 -2.1,0.3 -1.2,0 -2.1,-0.4 -2.7,-1.1 -0.6,-0.7 -0.9,-1.8 -0.9,-3.2 0,-1.3 0.3,-2.4 1,-3.1 0.7,-0.8 1.6,-1.2 2.8,-1.2 0.8,0 1.6,0.2 2.2,0.5 l -0.4,0.9 c -0.6,-0.3 -1.2,-0.4 -1.8,-0.4 -0.8,0 -1.5,0.3 -2,0.9 -0.5,0.6 -0.7,1.4 -0.7,2.5 0,1.1 0.2,1.9 0.7,2.5 0.5,0.6 1.1,0.9 2,0.9 0.6,0 1.2,-0.2 1.9,-0.4 z"
         id="path867"
         inkscape:connector-curvature="0"
         style="fill:#ffffff" /><path
         class="st2"
         d="m 1352.6,1030.9 h -1.1 v -3.9 h -3.4 v 3.9 h -1.1 v -8.4 h 1.1 v 3.5 h 3.4 v -3.5 h 1.1 z"
         id="path869"
         inkscape:connector-curvature="0"
         style="fill:#ffffff" /><path
         class="st2"
         d="m 1361.4,1030.9 h -1.2 l -3.3,-6.9 v 0 c 0.1,1.1 0.1,1.9 0.1,2.4 v 4.6 h -1 v -8.4 h 1.2 l 3.3,6.9 v 0 c -0.1,-1.2 -0.1,-1.9 -0.1,-2.3 v -4.6 h 1 z"
         id="path871"
         inkscape:connector-curvature="0"
         style="fill:#ffffff" /><path
         class="st2"
         d="m 1367.5,1031 c -2,0 -3.1,-1.4 -3.1,-4.3 0,-2.9 1,-4.3 3.1,-4.3 1,0 1.7,0.4 2.3,1.1 0.5,0.7 0.8,1.8 0.8,3.2 0,1.4 -0.3,2.4 -0.8,3.2 -0.6,0.7 -1.4,1.1 -2.3,1.1 z m 0,-0.9 c 0.7,0 1.1,-0.3 1.5,-0.8 0.3,-0.6 0.5,-1.4 0.5,-2.6 0,-1.2 -0.2,-2 -0.5,-2.6 -0.3,-0.5 -0.8,-0.8 -1.4,-0.8 -1.3,0 -1.9,1.1 -1.9,3.4 -0.2,2.2 0.5,3.4 1.8,3.4 z"
         id="path873"
         inkscape:connector-curvature="0"
         style="fill:#ffffff" /><path
         class="st2"
         d="m 1374.1,1030.9 v -8.4 h 1.1 v 7.4 h 3.6 v 1 z"
         id="path875"
         inkscape:connector-curvature="0"
         style="fill:#ffffff" /><path
         class="st2"
         d="m 1385.1,1031 c -2,0 -3.1,-1.4 -3.1,-4.3 0,-2.9 1,-4.3 3.1,-4.3 1,0 1.7,0.4 2.3,1.1 0.5,0.7 0.8,1.8 0.8,3.2 0,1.4 -0.3,2.4 -0.8,3.2 -0.6,0.7 -1.3,1.1 -2.3,1.1 z m 0,-0.9 c 0.7,0 1.1,-0.3 1.5,-0.8 0.3,-0.6 0.5,-1.4 0.5,-2.6 0,-1.2 -0.2,-2 -0.5,-2.6 -0.3,-0.5 -0.8,-0.8 -1.4,-0.8 -1.3,0 -1.9,1.1 -1.9,3.4 -0.1,2.2 0.5,3.4 1.8,3.4 z"
         id="path877"
         inkscape:connector-curvature="0"
         style="fill:#ffffff" /><path
         class="st2"
         d="m 1394.2,1026.4 h 2.4 v 4.1 c -0.7,0.3 -1.6,0.4 -2.4,0.4 -1,0 -1.8,-0.4 -2.4,-1.1 -0.6,-0.8 -0.8,-1.8 -0.8,-3.2 0,-1.3 0.3,-2.4 0.9,-3.2 0.6,-0.8 1.5,-1.1 2.6,-1.1 0.7,0 1.4,0.2 2,0.5 l -0.4,0.9 c -0.6,-0.3 -1.1,-0.5 -1.6,-0.5 -0.7,0 -1.3,0.3 -1.7,0.9 -0.4,0.6 -0.6,1.4 -0.6,2.5 0,2.3 0.8,3.4 2.3,3.4 0.4,0 0.8,-0.1 1.2,-0.2 v -2.5 h -1.4 v -0.9 z"
         id="path879"
         inkscape:connector-curvature="0"
         style="fill:#ffffff" /><path
         class="st2"
         d="m 1404.9,1030.9 h -4.5 v -0.7 l 1.7,-0.1 v -6.8 l -1.7,-0.1 v -0.7 h 4.5 v 0.7 l -1.7,0.1 v 6.8 l 1.7,0.1 z"
         id="path881"
         inkscape:connector-curvature="0"
         style="fill:#ffffff" /><path
         class="st2"
         d="m 1414.1,1030.9 h -4.8 v -8.4 h 4.8 v 0.9 h -3.8 v 2.6 h 3.5 v 0.9 h -3.5 v 3 h 3.8 z"
         id="path883"
         inkscape:connector-curvature="0"
         style="fill:#ffffff" /><path
         class="st2"
         d="m 1417.6,1030.6 v -1 c 0.8,0.3 1.6,0.5 2.4,0.5 1.3,0 2,-0.5 2,-1.4 0,-0.4 -0.1,-0.7 -0.4,-0.9 -0.3,-0.2 -0.8,-0.5 -1.6,-0.8 -0.8,-0.3 -1.4,-0.6 -1.7,-1 -0.3,-0.4 -0.5,-0.9 -0.5,-1.5 0,-0.7 0.2,-1.2 0.7,-1.6 0.5,-0.4 1.2,-0.6 2,-0.6 0.9,0 1.7,0.1 2.4,0.4 l -0.4,0.9 c -0.7,-0.3 -1.4,-0.4 -2.1,-0.4 -1.1,0 -1.7,0.4 -1.7,1.2 0,0.4 0.1,0.7 0.4,0.9 0.3,0.2 0.8,0.5 1.6,0.8 0.9,0.3 1.6,0.7 1.9,1 0.3,0.4 0.5,0.8 0.5,1.4 0,0.7 -0.3,1.3 -0.8,1.7 -0.5,0.4 -1.3,0.6 -2.3,0.6 -1,0.2 -1.8,0.1 -2.4,-0.2 z"
         id="path885"
         inkscape:connector-curvature="0"
         style="fill:#ffffff" /></g><g
       id="g923"><g
         id="g895"><rect
           x="1221"
           y="1003.2"
           class="st2"
           width="9.6000004"
           height="9.6000004"
           id="rect889"
           style="fill:#ffffff" /><rect
           x="1221"
           y="984"
           class="st2"
           width="9.6000004"
           height="9.6000004"
           id="rect891"
           style="fill:#ffffff" /><polygon
           class="st2"
           points="1221,993.6 1211.4,993.6 1211.4,974.4 1201.8,974.4 1201.8,1012.8 1211.4,1012.8 1211.4,1003.2 1221,1003.2 "
           id="polygon893"
           style="fill:#ffffff" /></g><rect
         x="1240.4"
         y="984"
         class="st2"
         width="9.6000004"
         height="28.799999"
         id="rect897"
         style="fill:#ffffff" /><polygon
         class="st2"
         points="1259.7,1012.8 1259.7,984 1288.5,984 1288.5,1011.1 1288.5,1012.8 1278.9,1012.8 1278.9,993.6 1269.3,993.6 1269.3,1012.8 "
         id="polygon899"
         style="fill:#ffffff" /><g
         id="g907"><rect
           x="1307.9"
           y="1003.2"
           class="st2"
           width="9.6000004"
           height="9.6000004"
           id="rect901"
           style="fill:#ffffff" /><rect
           x="1317.5"
           y="984"
           class="st2"
           width="9.6000004"
           height="19.200001"
           id="rect903"
           style="fill:#ffffff" /><rect
           x="1298.3"
           y="984"
           class="st2"
           width="9.6000004"
           height="19.200001"
           id="rect905"
           style="fill:#ffffff" /></g><g
         id="g915"><rect
           x="1414.3"
           y="984"
           class="st2"
           width="9.6000004"
           height="9.6000004"
           id="rect909"
           style="fill:#ffffff" /><polygon
           class="st2"
           points="1414.3,1003.2 1414.3,993.6 1404.7,993.6 1404.7,974.4 1395.1,974.4 1395.1,1012.8 1404.7,1012.8 1404.7,1003.2 "
           id="polygon911"
           style="fill:#ffffff" /><rect
           x="1414.3"
           y="1003.2"
           class="st2"
           width="9.6000004"
           height="9.6000004"
           id="rect913"
           style="fill:#ffffff" /></g><path
         class="st2"
         d="m 1337,1012.9 h 29.1 V 984 H 1337 Z m 9.8,-19.3 h 9.7 v 9.7 h -9.7 z"
         id="path917"
         inkscape:connector-curvature="0"
         style="fill:#ffffff" /><rect
         x="1337"
         y="945.09998"
         class="st2"
         width="9.8000002"
         height="29.1"
         id="rect919"
         style="fill:#ffffff" /><polygon
         class="st2"
         points="1356.5,974.2 1356.5,945.1 1385.4,945.1 1385.4,972.7 1385.4,1012.9 1375.8,1012.9 1375.8,974.4 1375.8,955 1366.1,955 1366.1,974.2 "
         id="polygon921"
         style="fill:#ffffff" /></g></g></svg>